<svg width="1200" height="720" viewBox="0 0 1200 720" fill="none" xmlns="http://www.w3.org/2000/svg">
  <rect width="1200" height="720" fill="#07111F"/>
  <rect x="56" y="56" width="1088" height="608" rx="32" fill="url(#bg)"/>
  <rect x="104" y="112" width="340" height="220" rx="24" fill="#0D1A2F" stroke="#284B7B"/>
  <rect x="476" y="112" width="620" height="220" rx="24" fill="#0D1A2F" stroke="#284B7B"/>
  <rect x="104" y="368" width="992" height="240" rx="24" fill="#0D1A2F" stroke="#284B7B"/>
  <text x="104" y="84" fill="#93C5FD" font-family="Segoe UI, Arial, sans-serif" font-size="28" font-weight="700">Kaggle Data Science Survey Analysis</text>
  <text x="136" y="162" fill="#F8FAFC" font-family="Segoe UI, Arial, sans-serif" font-size="20" font-weight="700">Salary by Country</text>
  <text x="508" y="162" fill="#F8FAFC" font-family="Segoe UI, Arial, sans-serif" font-size="20" font-weight="700">Python Adoption Trend</text>
  <text x="136" y="418" fill="#F8FAFC" font-family="Segoe UI, Arial, sans-serif" font-size="20" font-weight="700">Survey Signals Across Years</text>
  <rect x="148" y="240" width="40" height="48" rx="8" fill="#38BDF8"/>
  <rect x="208" y="214" width="40" height="74" rx="8" fill="#38BDF8"/>
  <rect x="268" y="188" width="40" height="100" rx="8" fill="#38BDF8"/>
  <rect x="328" y="156" width="40" height="132" rx="8" fill="#38BDF8"/>
  <rect x="388" y="174" width="24" height="114" rx="8" fill="#7DD3FC" opacity="0.7"/>
  <path d="M520 272C572 236 624 226 676 232C728 238 780 188 832 176C884 164 936 184 988 150C1017 131 1045 113 1072 98" stroke="#60A5FA" stroke-width="12" stroke-linecap="round"/>
  <circle cx="520" cy="272" r="10" fill="#DBEAFE"/>
  <circle cx="676" cy="232" r="10" fill="#DBEAFE"/>
  <circle cx="832" cy="176" r="10" fill="#DBEAFE"/>
  <circle cx="988" cy="150" r="10" fill="#DBEAFE"/>
  <rect x="148" y="452" width="904" height="20" rx="10" fill="#11233D"/>
  <rect x="148" y="452" width="612" height="20" rx="10" fill="#38BDF8"/>
  <rect x="148" y="500" width="904" height="20" rx="10" fill="#11233D"/>
  <rect x="148" y="500" width="760" height="20" rx="10" fill="#60A5FA"/>
  <rect x="148" y="548" width="904" height="20" rx="10" fill="#11233D"/>
  <rect x="148" y="548" width="840" height="20" rx="10" fill="#93C5FD"/>
  <text x="148" y="444" fill="#94A3B8" font-family="Segoe UI, Arial, sans-serif" font-size="16">Respondents cleaned and standardized</text>
  <text x="148" y="492" fill="#94A3B8" font-family="Segoe UI, Arial, sans-serif" font-size="16">Cross-year salary comparison coverage</text>
  <text x="148" y="540" fill="#94A3B8" font-family="Segoe UI, Arial, sans-serif" font-size="16">Tooling trend visualization completeness</text>
  <defs>
    <linearGradient id="bg" x1="56" y1="56" x2="1144" y2="664" gradientUnits="userSpaceOnUse">
      <stop stop-color="#0B1730"/>
      <stop offset="1" stop-color="#0A223D"/>
    </linearGradient>
  </defs>
</svg>
